<svg width="16" height="11" viewBox="0 0 22 15" fill="none" xmlns="http://www.w3.org/2000/svg">
<rect width="22" height="15" fill="#009246"/>
<path d="M11 1.76383L20.2199 7.5L11 13.2362L1.78012 7.5L11 1.76383Z" fill="#F8C300"/>
<circle cx="11" cy="7.5" r="3.15" fill="#231F20"/>
<path d="M11 5.09375C11.5878 5.09375 12.1643 5.1764 12.7231 5.33777C12.3995 5.67935 12.1121 6.06456 11.8687 6.48316C11.6254 6.90176 11.4287 7.34863 11.2847 7.81308C11.1407 8.27753 11.0526 8.75628 11.0253 9.24375C11.0253 8.75628 11.0878 8.27753 11.2139 7.81308C11.34 7.34863 11.5239 6.90176 11.7633 6.48316C12.0028 6.06456 12.2952 5.67935 12.6378 5.33777C12.1065 5.24433 11.5645 5.19685 11 5.19685V5.09375Z" fill="white"/>
</svg>
