<svg xmlns="http://www.w3.org/2000/svg" xmlns:xlink="http://www.w3.org/1999/xlink" width="500" zoomAndPan="magnify" viewBox="0 0 375 374.999991" height="500" preserveAspectRatio="xMidYMid meet" version="1.0"><defs><clipPath id="4580ff2674"><path d="M 47 29 L 230 29 L 230 226 L 47 226 Z M 47 29 " clip-rule="nonzero"/></clipPath><clipPath id="aaa148817f"><path d="M 181.695312 0.00390625 L 260.671875 69.296875 L 106.390625 245.148438 L 27.410156 175.855469 Z M 181.695312 0.00390625 " clip-rule="nonzero"/></clipPath><clipPath id="0a60a1d726"><path d="M 202.636719 29.265625 C 209.929688 29.09375 216.6875 30.707031 221.203125 34.667969 C 225.722656 38.632812 228.238281 44.535156 228.984375 51.765625 C 228.96875 51.957031 229.050781 52.03125 229.035156 52.222656 C 231.042969 80.285156 207.699219 129.246094 169.367188 173.367188 L 137.910156 209.222656 C 129.566406 218.730469 117.785156 224.535156 105.164062 225.363281 C 92.539062 226.1875 80.105469 221.960938 70.597656 213.621094 L 63.300781 207.21875 C 53.800781 198.882812 47.996094 187.113281 47.171875 174.5 C 46.347656 161.882812 50.570312 149.460938 58.90625 139.957031 L 90.339844 104.128906 C 129.351562 60.09375 174.6875 30.429688 202.636719 29.265625 Z M 202.636719 29.265625 " clip-rule="nonzero"/></clipPath><clipPath id="5ff32318d1"><path d="M 0 0.0390625 L 183 0.0390625 L 183 197 L 0 197 Z M 0 0.0390625 " clip-rule="nonzero"/></clipPath><clipPath id="27372bf1a7"><path d="M 134.695312 -28.996094 L 213.671875 40.296875 L 59.390625 216.148438 L -19.589844 146.855469 Z M 134.695312 -28.996094 " clip-rule="nonzero"/></clipPath><clipPath id="e8ac0ba087"><path d="M 155.636719 0.265625 C 162.929688 0.09375 169.6875 1.707031 174.203125 5.667969 C 178.722656 9.632812 181.238281 15.535156 181.984375 22.765625 C 181.96875 22.957031 182.050781 23.03125 182.035156 23.222656 C 184.042969 51.285156 160.699219 100.246094 122.367188 144.367188 L 90.910156 180.222656 C 82.566406 189.730469 70.785156 195.535156 58.164062 196.363281 C 45.539062 197.1875 33.105469 192.960938 23.597656 184.621094 L 16.300781 178.21875 C 6.800781 169.882812 0.996094 158.113281 0.171875 145.5 C -0.652344 132.882812 3.570312 120.460938 11.90625 110.957031 L 43.339844 75.128906 C 82.351562 31.09375 127.6875 1.429688 155.636719 0.265625 Z M 155.636719 0.265625 " clip-rule="nonzero"/></clipPath><clipPath id="5e03980855"><rect x="0" width="183" y="0" height="197"/></clipPath><clipPath id="ac30d6bc23"><path d="M 115 68 L 291 68 L 291 274 L 115 274 Z M 115 68 " clip-rule="nonzero"/></clipPath><clipPath id="0e13503c77"><path d="M 243.898438 41.96875 L 321.125 101.636719 L 172.652344 293.796875 L 95.425781 234.128906 Z M 243.898438 41.96875 " clip-rule="nonzero"/></clipPath><clipPath id="4a38399b6a"><path d="M 264.652344 68.347656 C 271.621094 67.484375 278.117188 68.40625 282.535156 71.820312 C 286.953125 75.234375 289.503906 80.71875 290.398438 87.65625 C 290.386719 87.839844 290.472656 87.90625 290.460938 88.09375 C 293.085938 115.101562 272.003906 164.78125 236.359375 211.347656 L 202.605469 255.027344 C 194.695312 265.269531 183.039062 271.949219 170.203125 273.59375 C 157.367188 275.242188 144.402344 271.71875 134.160156 263.808594 C 123.917969 255.894531 117.242188 244.238281 115.59375 231.402344 C 113.949219 218.566406 117.46875 205.601562 125.382812 195.359375 L 159.085938 151.738281 C 195.386719 105.1875 237.96875 72.125 264.652344 68.347656 Z M 264.652344 68.347656 " clip-rule="nonzero"/></clipPath><clipPath id="8ab29a42da"><path d="M 0 0 L 176 0 L 176 206 L 0 206 Z M 0 0 " clip-rule="nonzero"/></clipPath><clipPath id="6a2934e067"><path d="M 128.898438 -26.03125 L 206.125 33.636719 L 57.652344 225.796875 L -19.574219 166.128906 Z M 128.898438 -26.03125 " clip-rule="nonzero"/></clipPath><clipPath id="383c9272f7"><path d="M 149.652344 0.347656 C 156.621094 -0.515625 163.117188 0.40625 167.535156 3.820312 C 171.953125 7.234375 174.503906 12.71875 175.398438 19.65625 C 175.386719 19.839844 175.472656 19.90625 175.460938 20.09375 C 178.085938 47.101562 157.003906 96.78125 121.359375 143.347656 L 87.605469 187.027344 C 79.695312 197.269531 68.039062 203.949219 55.203125 205.59375 C 42.367188 207.242188 29.402344 203.71875 19.160156 195.808594 C 8.917969 187.894531 2.242188 176.238281 0.59375 163.402344 C -1.050781 150.566406 2.46875 137.601562 10.382812 127.359375 L 44.085938 83.738281 C 80.386719 37.1875 122.96875 4.125 149.652344 0.347656 Z M 149.652344 0.347656 " clip-rule="nonzero"/></clipPath><clipPath id="78db67b1ec"><rect x="0" width="176" y="0" height="206"/></clipPath><clipPath id="4617cc275e"><path d="M 168 134 L 346 134 L 346 340 L 168 340 Z M 168 134 " clip-rule="nonzero"/></clipPath><clipPath id="5a398039ed"><path d="M 300.128906 108.730469 L 375.714844 168.792969 L 224.621094 358.9375 L 149.035156 298.875 Z M 300.128906 108.730469 " clip-rule="nonzero"/></clipPath><clipPath id="618c5c9bf1"><path d="M 320.246094 135.171875 C 327.183594 134.371094 333.617188 135.34375 337.941406 138.777344 C 342.265625 142.214844 344.695312 147.695312 345.457031 154.613281 C 345.441406 154.796875 345.523438 154.863281 345.507812 155.050781 C 347.609375 181.96875 325.742188 231.261719 289.460938 277.339844 L 254.789062 320.976562 C 246.824219 331 235.203125 337.449219 222.484375 338.902344 C 209.765625 340.359375 196.988281 336.703125 186.964844 328.738281 C 176.941406 320.773438 170.492188 309.152344 169.035156 296.433594 C 167.582031 283.714844 171.238281 270.9375 179.203125 260.914062 L 213.828125 217.335938 C 250.757812 171.285156 293.671875 138.714844 320.246094 135.171875 Z M 320.246094 135.171875 " clip-rule="nonzero"/></clipPath><clipPath id="df5f5b160e"><path d="M 0 0.160156 L 178 0.160156 L 178 206 L 0 206 Z M 0 0.160156 " clip-rule="nonzero"/></clipPath><clipPath id="f2a48043a1"><path d="M 132.128906 -25.269531 L 207.714844 34.792969 L 56.621094 224.9375 L -18.964844 164.875 Z M 132.128906 -25.269531 " clip-rule="nonzero"/></clipPath><clipPath id="0d09a2e473"><path d="M 152.246094 1.171875 C 159.183594 0.371094 165.617188 1.34375 169.941406 4.777344 C 174.265625 8.214844 176.695312 13.695312 177.457031 20.613281 C 177.441406 20.796875 177.523438 20.863281 177.507812 21.050781 C 179.609375 47.96875 157.742188 97.261719 121.460938 143.339844 L 86.789062 186.976562 C 78.824219 197 67.203125 203.449219 54.484375 204.902344 C 41.765625 206.359375 28.988281 202.703125 18.964844 194.738281 C 8.941406 186.773438 2.492188 175.152344 1.035156 162.433594 C -0.417969 149.714844 3.238281 136.9375 11.203125 126.914062 L 45.828125 83.335938 C 82.757812 37.285156 125.671875 4.714844 152.246094 1.171875 Z M 152.246094 1.171875 " clip-rule="nonzero"/></clipPath><clipPath id="efdb6203a4"><rect x="0" width="178" y="0" height="206"/></clipPath><clipPath id="3cac43be0b"><path d="M 0 60.464844 L 120.769531 60.464844 L 120.769531 293.980469 L 0 293.980469 Z M 0 60.464844 " clip-rule="nonzero"/></clipPath><clipPath id="f8692fedb9"><path d="M 40.277344 68.648438 C 46.449219 63.707031 53.507812 60.464844 60.417969 60.464844 C 67.324219 60.464844 73.972656 63.242188 80.097656 68.183594 C 80.230469 68.339844 80.359375 68.339844 80.492188 68.496094 C 103.496094 88.261719 120.441406 140.460938 120.769531 198.894531 L 120.769531 246.265625 C 120.769531 272.429688 99.558594 293.636719 73.398438 293.636719 L 47.335938 293.636719 C 34.78125 293.636719 22.742188 288.648438 13.863281 279.773438 C 4.988281 270.894531 0 258.855469 0 246.300781 L 0 198.964844 C 0.324219 140.152344 17.011719 87.953125 40.277344 68.648438 Z M 40.277344 68.648438 " clip-rule="nonzero"/></clipPath><clipPath id="9ea9dfe39b"><path d="M 0 0.464844 L 120.769531 0.464844 L 120.769531 233.761719 L 0 233.761719 Z M 0 0.464844 " clip-rule="nonzero"/></clipPath><clipPath id="9c4cf4a525"><path d="M 40.277344 8.648438 C 46.449219 3.707031 53.507812 0.464844 60.417969 0.464844 C 67.324219 0.464844 73.972656 3.242188 80.097656 8.183594 C 80.230469 8.339844 80.359375 8.339844 80.492188 8.496094 C 103.496094 28.261719 120.441406 80.460938 120.769531 138.894531 L 120.769531 186.265625 C 120.769531 212.429688 99.558594 233.636719 73.398438 233.636719 L 47.335938 233.636719 C 34.78125 233.636719 22.742188 228.648438 13.863281 219.773438 C 4.988281 210.894531 0 198.855469 0 186.300781 L 0 138.964844 C 0.324219 80.152344 17.011719 27.953125 40.277344 8.648438 Z M 40.277344 8.648438 " clip-rule="nonzero"/></clipPath><clipPath id="eef1c9bafb"><rect x="0" width="121" y="0" height="234"/></clipPath><clipPath id="4e7db423a2"><path d="M 0 119.292969 L 283.675781 119.292969 L 283.675781 375 L 0 375 Z M 0 119.292969 " clip-rule="nonzero"/></clipPath><clipPath id="40f318524d"><path d="M 141.730469 119.292969 C 63.453125 119.292969 0 176.535156 0 247.144531 C 0 317.757812 63.453125 375 141.730469 375 C 220.003906 375 283.460938 317.757812 283.460938 247.144531 C 283.460938 176.535156 220.003906 119.292969 141.730469 119.292969 Z M 141.730469 119.292969 " clip-rule="nonzero"/></clipPath><clipPath id="188086551a"><path d="M 0 0.292969 L 283.675781 0.292969 L 283.675781 256 L 0 256 Z M 0 0.292969 " clip-rule="nonzero"/></clipPath><clipPath id="62ce8cf820"><path d="M 141.730469 0.292969 C 63.453125 0.292969 0 57.535156 0 128.144531 C 0 198.757812 63.453125 256 141.730469 256 C 220.003906 256 283.460938 198.757812 283.460938 128.144531 C 283.460938 57.535156 220.003906 0.292969 141.730469 0.292969 Z M 141.730469 0.292969 " clip-rule="nonzero"/></clipPath><clipPath id="2790ae6fb4"><rect x="0" width="284" y="0" height="256"/></clipPath><clipPath id="e90b840b45"><path d="M 5.738281 169.21875 L 235 169.21875 L 235 355.230469 L 5.738281 355.230469 Z M 5.738281 169.21875 " clip-rule="nonzero"/></clipPath><clipPath id="a2790edf24"><path d="M 120.257812 169.21875 C 57.011719 169.21875 5.738281 210.859375 5.738281 262.226562 C 5.738281 313.589844 57.011719 355.230469 120.257812 355.230469 C 183.503906 355.230469 234.773438 313.589844 234.773438 262.226562 C 234.773438 210.859375 183.503906 169.21875 120.257812 169.21875 Z M 120.257812 169.21875 " clip-rule="nonzero"/></clipPath><clipPath id="8e3904f651"><path d="M 0.738281 0.21875 L 229.960938 0.21875 L 229.960938 186.230469 L 0.738281 186.230469 Z M 0.738281 0.21875 " clip-rule="nonzero"/></clipPath><clipPath id="92566a1312"><path d="M 115.257812 0.21875 C 52.011719 0.21875 0.738281 41.859375 0.738281 93.226562 C 0.738281 144.589844 52.011719 186.230469 115.257812 186.230469 C 178.503906 186.230469 229.773438 144.589844 229.773438 93.226562 C 229.773438 41.859375 178.503906 0.21875 115.257812 0.21875 Z M 115.257812 0.21875 " clip-rule="nonzero"/></clipPath><clipPath id="abe47438e1"><rect x="0" width="230" y="0" height="187"/></clipPath><clipPath id="d8558884e2"><path d="M 112.839844 229.464844 L 151.199219 229.464844 L 151.199219 306.339844 L 112.839844 306.339844 Z M 112.839844 229.464844 " clip-rule="nonzero"/></clipPath><clipPath id="5b17e51dcd"><path d="M 132.019531 229.464844 C 121.425781 229.464844 112.839844 246.648438 112.839844 267.84375 C 112.839844 289.039062 121.425781 306.222656 132.019531 306.222656 C 142.613281 306.222656 151.199219 289.039062 151.199219 267.84375 C 151.199219 246.648438 142.613281 229.464844 132.019531 229.464844 Z M 132.019531 229.464844 " clip-rule="nonzero"/></clipPath><clipPath id="511c82ae81"><path d="M 0.839844 0.464844 L 39.199219 0.464844 L 39.199219 77.238281 L 0.839844 77.238281 Z M 0.839844 0.464844 " clip-rule="nonzero"/></clipPath><clipPath id="84f8511ff3"><path d="M 20.019531 0.464844 C 9.425781 0.464844 0.839844 17.648438 0.839844 38.84375 C 0.839844 60.039062 9.425781 77.222656 20.019531 77.222656 C 30.613281 77.222656 39.199219 60.039062 39.199219 38.84375 C 39.199219 17.648438 30.613281 0.464844 20.019531 0.464844 Z M 20.019531 0.464844 " clip-rule="nonzero"/></clipPath><clipPath id="1767e058e0"><rect x="0" width="40" y="0" height="78"/></clipPath><clipPath id="e5d223437c"><path d="M 58.863281 239.292969 L 92.3125 239.292969 L 92.3125 306.324219 L 58.863281 306.324219 Z M 58.863281 239.292969 " clip-rule="nonzero"/></clipPath><clipPath id="d946529e9e"><path d="M 75.589844 239.292969 C 66.351562 239.292969 58.863281 254.277344 58.863281 272.757812 C 58.863281 291.242188 66.351562 306.222656 75.589844 306.222656 C 84.824219 306.222656 92.3125 291.242188 92.3125 272.757812 C 92.3125 254.277344 84.824219 239.292969 75.589844 239.292969 Z M 75.589844 239.292969 " clip-rule="nonzero"/></clipPath><clipPath id="9ed4e7c343"><path d="M 0.863281 0.292969 L 34.3125 0.292969 L 34.3125 67.238281 L 0.863281 67.238281 Z M 0.863281 0.292969 " clip-rule="nonzero"/></clipPath><clipPath id="31a258b4bc"><path d="M 17.589844 0.292969 C 8.351562 0.292969 0.863281 15.277344 0.863281 33.757812 C 0.863281 52.242188 8.351562 67.222656 17.589844 67.222656 C 26.824219 67.222656 34.3125 52.242188 34.3125 33.757812 C 34.3125 15.277344 26.824219 0.292969 17.589844 0.292969 Z M 17.589844 0.292969 " clip-rule="nonzero"/></clipPath><clipPath id="73ad0553f1"><rect x="0" width="35" y="0" height="68"/></clipPath><clipPath id="06db0ab0f4"><rect x="0" width="375" y="0" height="375"/></clipPath></defs><g transform="matrix(1, 0, 0, 1, 0, 0)"><g clip-path="url(#06db0ab0f4)"><g clip-path="url(#4580ff2674)"><g clip-path="url(#aaa148817f)"><g clip-path="url(#0a60a1d726)"><g transform="matrix(1, 0, 0, 1, 47, 29)"><g clip-path="url(#5e03980855)"><g clip-path="url(#5ff32318d1)"><g clip-path="url(#27372bf1a7)"><g clip-path="url(#e8ac0ba087)"><path fill="#ffffff" d="M 134.695312 -28.996094 L 213.671875 40.296875 L 59.390625 216.148438 L -19.589844 146.855469 Z M 134.695312 -28.996094 " fill-opacity="1" fill-rule="nonzero"/></g></g></g></g></g></g></g></g><g clip-path="url(#ac30d6bc23)"><g clip-path="url(#0e13503c77)"><g clip-path="url(#4a38399b6a)"><g transform="matrix(1, 0, 0, 1, 115, 68)"><g clip-path="url(#78db67b1ec)"><g clip-path="url(#8ab29a42da)"><g clip-path="url(#6a2934e067)"><g clip-path="url(#383c9272f7)"><path fill="#ffffff" d="M 128.898438 -26.03125 L 206.125 33.636719 L 57.886719 225.496094 L -19.339844 165.828125 Z M 128.898438 -26.03125 " fill-opacity="1" fill-rule="nonzero"/></g></g></g></g></g></g></g></g><g clip-path="url(#4617cc275e)"><g clip-path="url(#5a398039ed)"><g clip-path="url(#618c5c9bf1)"><g transform="matrix(1, 0, 0, 1, 168, 134)"><g clip-path="url(#efdb6203a4)"><g clip-path="url(#df5f5b160e)"><g clip-path="url(#f2a48043a1)"><g clip-path="url(#0d09a2e473)"><path fill="#ffffff" d="M 132.128906 -25.269531 L 207.714844 34.792969 L 56.855469 224.644531 L -18.730469 164.582031 Z M 132.128906 -25.269531 " fill-opacity="1" fill-rule="nonzero"/></g></g></g></g></g></g></g></g><g clip-path="url(#3cac43be0b)"><g clip-path="url(#f8692fedb9)"><g transform="matrix(1, 0, 0, 1, 0, 60)"><g clip-path="url(#eef1c9bafb)"><g clip-path="url(#9ea9dfe39b)"><g clip-path="url(#9c4cf4a525)"><path fill="#ffffff" d="M 0 0.464844 L 120.769531 0.464844 L 120.769531 233.507812 L 0 233.507812 Z M 0 0.464844 " fill-opacity="1" fill-rule="nonzero"/></g></g></g></g></g></g><g clip-path="url(#4e7db423a2)"><g clip-path="url(#40f318524d)"><g transform="matrix(1, 0, 0, 1, 0, 119)"><g clip-path="url(#2790ae6fb4)"><g clip-path="url(#188086551a)"><g clip-path="url(#62ce8cf820)"><path fill="#ffffff" d="M 0 0.292969 L 283.675781 0.292969 L 283.675781 256 L 0 256 Z M 0 0.292969 " fill-opacity="1" fill-rule="nonzero"/></g></g></g></g></g></g><g clip-path="url(#e90b840b45)"><g clip-path="url(#a2790edf24)"><g transform="matrix(1, 0, 0, 1, 5, 169)"><g clip-path="url(#abe47438e1)"><g clip-path="url(#8e3904f651)"><g clip-path="url(#92566a1312)"><path fill="#ffffff" d="M 0.738281 0.21875 L 229.621094 0.21875 L 229.621094 186.230469 L 0.738281 186.230469 Z M 0.738281 0.21875 " fill-opacity="1" fill-rule="nonzero"/></g></g></g></g></g></g><g clip-path="url(#d8558884e2)"><g clip-path="url(#5b17e51dcd)"><g transform="matrix(1, 0, 0, 1, 112, 229)"><g clip-path="url(#1767e058e0)"><g clip-path="url(#511c82ae81)"><g clip-path="url(#84f8511ff3)"><path fill="#ffffff" d="M 0.839844 0.464844 L 39.199219 0.464844 L 39.199219 77.191406 L 0.839844 77.191406 Z M 0.839844 0.464844 " fill-opacity="1" fill-rule="nonzero"/></g></g></g></g></g></g><g clip-path="url(#e5d223437c)"><g clip-path="url(#d946529e9e)"><g transform="matrix(1, 0, 0, 1, 58, 239)"><g clip-path="url(#73ad0553f1)"><g clip-path="url(#9ed4e7c343)"><g clip-path="url(#31a258b4bc)"><path fill="#ffffff" d="M 0.863281 0.292969 L 34.3125 0.292969 L 34.3125 67.195312 L 0.863281 67.195312 Z M 0.863281 0.292969 " fill-opacity="1" fill-rule="nonzero"/></g></g></g></g></g></g></g></g></svg>